<svg xmlns="http://www.w3.org/2000/svg" width="595.275" height="841.89" viewBox="34.586997985839844 323.4200134277344 527.2430419921875 197.15896606445312"><path fill="#FFF" d="M60.308 512.774c0-9.244-20.452-5.745-20.452-11.031 0-2.042 3.152-3.665 7.905-3.665 3.647 0 7.395 1.312 9.666 2.771l2.497-3.081c-2.748-1.715-7.219-3.466-12.007-3.466-7.727 0-12.636 3.466-12.636 8.006 0 9.008 20.428 5.068 20.428 10.886 0 1.934-2.337 3.611-7.611 3.611-3.919 0-7.978-1.113-11.843-3.064l-1.668 3.629c3.759 1.805 8.351 3.209 13.275 3.209 7.257 0 12.446-3.064 12.446-7.805z"/><path fill-rule="evenodd" clip-rule="evenodd" fill="#FFF" d="M93.273 502.836v-.164c0-4.411-3.283-7.476-10.608-7.476H69.417v24.36h4.541v-9.098h8.708c7.325.001 10.607-3.1 10.607-7.622zm-4.558.165c0 2.024-1.393 3.812-5.17 3.812h-9.587v-7.805h9.373c3.761 0 5.385 1.642 5.385 3.664v.329h-.001z"/><path fill="#FFF" d="M124.466 519.557v-3.809h-17.581v-6.767h13.509v-3.666h-13.509v-6.307h17.581v-3.812H102.31v24.361h22.156zM159.782 499.189c-2.533-2.718-7.236-4.887-12.391-4.887-8.933 0-15.036 6.292-15.036 12.856v.764c0 6.653 5.59 12.656 14.819 12.656 5.372 0 9.917-2.298 12.608-4.887l-2.763-2.899c-2.123 1.988-5.487 3.872-9.56 3.872-6.805 0-10.507-4.255-10.507-8.924v-.418c0-4.687 3.677-9.188 10.175-9.188 4.358 0 7.588 1.947 9.779 3.954l2.876-2.899zM173.182 519.557v-24.361h-4.575v24.361h4.575z"/><path fill-rule="evenodd" clip-rule="evenodd" fill="#FFF" d="M211.218 519.557l-13.375-24.36h-3.811l-13.175 24.36h4.824l3.1-6.016h14.333l3.2 6.016h4.904zm-9.911-9.318h-10.805l5.333-10.303 5.472 10.303z"/><path fill="#FFF" d="M242.528 519.557v-3.809h-19.074v-20.552h-4.593v24.361h23.667zM273.126 519.557v-3.809h-17.597v-6.767h13.521v-3.666h-13.521v-6.307h17.597v-3.812H250.97v24.361h22.156zM306.154 519.557v-3.809h-19.118v-20.552h-4.559v24.361h23.677zM336.708 519.557v-3.809H319.11v-6.767h13.568v-3.666H319.11v-6.307h17.598v-3.812h-22.155v24.361h22.155zM372.144 519.557s-11.086-9.991-14.481-12.964l14.136-11.396h-6.183l-15.062 12.509v-12.509h-4.54v24.36h4.54v-7.311l4.122-3.245c0-.02 11.506 10.556 11.506 10.556h5.962zM404.499 499.008v-3.812h-25.838v3.812h10.665v20.549h4.579v-20.549h10.594z"/><path fill-rule="evenodd" clip-rule="evenodd" fill="#FFF" d="M438.827 519.557v-.053c-1.131-1.24-1.459-2.464-1.478-4.141l-.018-2.005c-.019-2.882-1.076-5.027-5.816-5.398 4.74-.818 6.112-3.354 6.112-6.053 0-3.793-3.342-6.711-10.636-6.711h-13.274v24.36h4.558v-9.827h8.681c4.56 0 5.507 1.059 5.671 3.447l.164 2.516c.164 2.188.711 3.864 1.955 3.864h4.081v.001zm-5.835-16.756c0 1.969-1.589 3.5-4.924 3.5h-9.793v-7.293h9.41c3.866 0 5.307 1.769 5.307 3.464v.329zM474.775 507.87v-.858c0-6.564-5.617-12.709-14.255-12.709-8.648 0-14.265 6.145-14.265 12.709v.858c0 6.418 5.616 12.709 14.265 12.709 8.638 0 14.255-6.291 14.255-12.709zm-4.577-.165c0 4.723-3.446 8.96-9.678 8.96-6.26 0-9.629-4.237-9.629-8.96v-.563c0-4.725 3.369-9.006 9.629-9.006 6.231 0 9.678 4.281 9.678 9.006v.563z"/><path fill="#FFF" d="M509.856 519.557v-24.361h-4.565v18.064l-1.545-1.743-15.377-16.321h-4.378v24.361h4.561v-18.016l1.494 1.699 15.889 16.317h3.921zM525.087 519.557v-24.361h-4.559v24.361h4.559zM561.83 519.557s-11.119-9.991-14.438-12.964l14.118-11.396h-6.182l-15.063 12.509v-12.509h-4.537v24.36h4.537v-7.311l4.063-3.245c0-.02 11.578 10.556 11.578 10.556h5.924z"/><path fill-rule="evenodd" clip-rule="evenodd" fill="#9C9C9E" d="M406.298 425.615v-2.03h-41.231c0 11.137-6.747 19.437-36.516 19.437-32.363 0-39.157-10.896-39.157-28.304v-7.359h116.904v-32.693c0-27.976-7.972-51.246-78.88-51.246-71 0-78.972 23.27-78.972 51.246v42.978c0 27.738 9.151 51.235 80.105 51.235 61.894-.001 77.747-15.616 77.747-43.264zm-41.232-41.841h-75.672v-5.289c0-18.257 4.435-29.758 38.024-29.758 33.501 0 37.648 11.501 37.648 29.758v5.289z"/><path fill="#359D37" d="M300.24 384.1l-51.23-3.255c-10.289-.896-15.29-4.718-15.29-13.54 0-11.182 4.717-17.396 37.41-17.396 28.542 0 33.26 5.889 33.26 16.786v.895h42.128v-3.821c0-25.617-12.927-40.053-75.388-40.053-56.847 0-79.539 13.54-79.539 44.158 0 23.871 11.507 38.59 48.309 40.949l50.95 3.255c10.615.567 15.57 4.388 15.57 13.54 0 11.227-4.955 17.406-37.648 17.406-29.473 0-35.335-5.942-35.335-16.84v-.896h-41.846v3.821c0 25.38 13.257 40.1 77.181 40.1 57.085 0 79.539-13.587 79.539-44.487 0-26.187-9.764-38.264-48.071-40.622z"/><path fill-rule="evenodd" clip-rule="evenodd" fill="#9C9C9E" d="M248.512 420.714c.714 26.339 11.715 48.164 80.039 48.164 61.895 0 77.747-15.615 77.747-43.263v-2.03h-41.231c0 11.137-6.747 19.437-36.516 19.437-28.201 0-36.99-8.319-38.538-21.954l-41.501-.354z"/></svg>