<svg xmlns="http://www.w3.org/2000/svg" viewBox="0 0 338.56 158.9"><title>crestron-stack</title><path d="M274.5,38.77a22.38,22.38,0,0,0-3-1.73c-.87-.42-1.64-.73-2.22-1a.85.85,0,0,0-1.26.86c.86,17.25-4.88,27.84-15.64,36.87-9,7.52-21.19,14.17-41.48,17.45h-.11q-3.75.6-7.87,1a76.72,76.72,0,0,1-23.17-1C160.33,87,148.16,75.16,158.63,65.85a.89.89,0,1,0-1.12-1.39c-13.18,9.65-7.3,17-.86,22.77a56.15,56.15,0,0,0,5.94,4c19.89,10.57,59.84,9.24,89.65.53l1.93-.56v0C285.93,81.43,307.43,62,274.5,38.77Z" transform="translate(-10.72 -10.55)" style="fill:#124169"/><path d="M173.63,13.57c29.68,8.36,44.68,16.37,54.39,25.74C237.11,48.08,242,57.78,234.13,70c-9.61,15-52.21,20.26-67.84,6.06A.89.89,0,0,0,165,77.29c9.28,10.47,23.41,11.38,36,11.35,67.68-.16,87.28-83.94-20.22-77.76a51.3,51.3,0,0,0-7,.94A.88.88,0,0,0,173.63,13.57Z" transform="translate(-10.72 -10.55)" style="fill:#124169"/><path d="M86.29,44.21c28.77-9.15,49.72-11.92,70.44-11.59,19.39.3,38.79,3,55.74,13,18.91,11.06,9.07,32.63-23.72,32.54a.9.9,0,1,0,0,1.79c21.64,1,30.31-4.74,36.72-10.56C242.75,53.63,217.06,32.9,185,23.08,152.2,13,109.46,12.9,87.25,39.19a9.89,9.89,0,0,0-1.49,2.31c-.27.62-.42,1.13-.57,1.53A.86.86,0,0,0,86.29,44.21Z" transform="translate(-10.72 -10.55)" style="fill:#124169"/><path d="M109.77,61.24c10.09-8.46,24.29-15.82,49.47-18.49,32.39-3.44,58.43,13.88,44.33,26.41a.89.89,0,0,0,1.12,1.39c13.18-9.65,7.3-17,.86-22.77C188.88,33,143.13,33.51,110,43.2c-30.48,8.91-52.53,26.57-28.58,48h0a71.21,71.21,0,0,0,6.32,5,23.23,23.23,0,0,0,2.91,1.87,14.39,14.39,0,0,0,2.22,1,1,1,0,0,0,1.31-1,62.69,62.69,0,0,1,0-6.87h0l0,0C95,77.91,100.53,69,109.77,61.24Z" transform="translate(-10.72 -10.55)" style="fill:#124169"/><path d="M275.91,90.8c-.4.13-.79.25-1.19.4h-.09c-28.12,8.83-48.75,11.51-69.16,11.19-18.14-.28-36.29-2.71-52.45-11.15h0c-1.11-.58-2.2-1.19-3.29-1.82-18.91-11.06-9.06-32.63,23.73-32.55a.89.89,0,1,0,0-1.78c-21.65-1.05-30.31,4.74-36.72,10.56-8.74,7.93-6.54,17.13,1.89,25.59h0c8.3,8.28,22.6,15.82,38.46,20.69C210,122,252.74,122.11,275,95.82a9.68,9.68,0,0,0,1.48-2.31c.28-.62.42-1.13.58-1.53a1,1,0,0,0,0-.74A.87.87,0,0,0,275.91,90.8Z" transform="translate(-10.72 -10.55)" style="fill:#124169"/><path d="M188.57,121.44c-29.68-8.36-44.68-16.38-54.39-25.74A51.67,51.67,0,0,1,130,91.24h0c-6.21-7.61-8.49-16-2-26.2,9.61-15,52.21-20.26,67.84-6.07a.89.89,0,0,0,1.27-1.25c-9.28-10.47-23.42-11.38-36-11.35C125.35,46.45,103,70,105.89,91.24c2.57,18.82,25,35.8,75.55,32.89a50.89,50.89,0,0,0,7-.95A.88.88,0,0,0,188.57,121.44Z" transform="translate(-10.72 -10.55)" style="fill:#124169"/><path d="M40.4,155.21a8.54,8.54,0,0,1-8.47,5.45c-5.58,0-7.93-3.17-6.68-9s4.95-9.07,10.53-9.07c4.38,0,6.46,2.23,6,6.37H56.67c1.57-9.58-5-15-19.06-15-15,0-23.9,6.05-26.37,17.68s3.88,17.68,18.86,17.68c13.4,0,22-4.89,25.33-14.1Z" transform="translate(-10.72 -10.55)" style="fill:#124169"/><path d="M280.64,134c-15,0-23.9,6.05-26.37,17.68s3.87,17.68,18.86,17.68,23.89-6.05,26.36-17.68S295.62,134,280.64,134ZM285,151.63c-1.25,5.86-4.95,9-10.53,9s-7.93-3.17-6.69-9,5-9.07,10.54-9.07S286.25,145.77,285,151.63Z" transform="translate(-10.72 -10.55)" style="fill:#124169"/><polygon points="321.98 124.28 317.87 143.64 309 124.28 293.6 124.28 286.46 157.87 298.74 157.87 302.92 138.19 312.83 157.87 327.44 157.87 334.59 124.28 321.98 124.28" style="fill:#124169"/><path d="M256.4,143.86c.69-3.26-.12-5.82-2.31-7.31-1.87-1.3-5.45-1.72-10.76-1.72H217.74l-7.14,33.59h13.22L226,158.19h7.77c3.21,0,4.24.84,4,3.35-.28,2.84-1.26,5.26-.58,6.88h14.47l.11-.51c-1.42-.79-.83-3.53,0-8.37.63-3.82.6-5.68-2.66-7.16A11.53,11.53,0,0,0,256.4,143.86Zm-14.9,2.42c-.51,2.42-2.46,3.07-6.05,3.07h-7.58l1.28-6h7.25C240.22,143.35,242.05,143.72,241.5,146.28Z" transform="translate(-10.72 -10.55)" style="fill:#124169"/><path d="M216.56,134.83H179.2l-1,4.8c-2-3.94-8.06-5.68-18.18-5.68-13.12,0-20,3.12-21.65,10.79-1.2,5.63,2.17,9,10,10l9.47,1.21c3,.37,4.4,1.21,4.09,2.65-.34,1.63-2.28,2.42-5.77,2.42s-5.4-1.07-5.26-2.84H135.12a11.32,11.32,0,0,0-.19,1.58H111.59l.94-4.42h18.28l1.76-8.28H114.29l.85-4H137.7l1.76-8.24h-35.6l-7.14,33.59h36.71l1.55-7.29c.6,5.3,6.42,8.32,17.29,8.32,15.44,0,23.59-3.54,25.38-12,1.18-5.53-1.81-8.75-9-9.82L157.16,146c-3.25-.46-4.79-.88-4.48-2.37.28-1.31,2.11-2.24,5.18-2.24,4,0,6,1.12,5.87,3.21h15.13a11.05,11.05,0,0,0,.1-1.25h10.57l-5.33,25.07h13l5.33-25.07h12.19Z" transform="translate(-10.72 -10.55)" style="fill:#124169"/><path d="M100,143.86c.69-3.26-.12-5.82-2.31-7.31-1.87-1.3-5.45-1.72-10.75-1.72H61.37l-7.13,33.59H67.45l2.18-10.23H77.4c3.2,0,4.24.84,4,3.35-.28,2.84-1.26,5.26-.58,6.88H95.27l.11-.51c-1.41-.79-.83-3.53,0-8.37.62-3.82.6-5.68-2.67-7.16A11.49,11.49,0,0,0,100,143.86Zm-14.89,2.42c-.52,2.42-2.47,3.07-6,3.07H71.5l1.28-6H80C83.85,143.35,85.68,143.72,85.14,146.28Z" transform="translate(-10.72 -10.55)" style="fill:#124169"/><path d="M347.09,163.47c0-.9-.53-1.3-1.61-1.3h-1.75v4.58h.7v-2h.79l1.21,2h.78l-1.3-2A1.2,1.2,0,0,0,347.09,163.47Zm-2.66.71v-1.42h.94c.49,0,1,.11,1,.67s-.53.75-1.11.75Z" transform="translate(-10.72 -10.55)" style="fill:#124169"/><path d="M345.27,160.49a4,4,0,1,0,4,4A4,4,0,0,0,345.27,160.49Zm0,7.28a3.31,3.31,0,1,1,3.21-3.32A3.21,3.21,0,0,1,345.27,167.77Z" transform="translate(-10.72 -10.55)" style="fill:#124169"/></svg>