<svg xmlns="http://www.w3.org/2000/svg" viewBox="0 0 576.08 298.62"><title>crestron-swirl</title><path d="M541.85,86.68a56.29,56.29,0,0,0-7.76-4.54c-2.28-1.1-4.28-1.92-5.79-2.62A2.25,2.25,0,0,0,525,81.77c2.28,45.23-12.77,73-41,96.65-23.5,19.71-55.57,37.15-108.77,45.75H375q-9.82,1.58-20.64,2.72c-21.86,2.33-43.86.91-60.75-2.71-51-11-82.91-42.12-55.46-66.51a2.35,2.35,0,0,0-2.95-3.66c-34.54,25.3-19.14,44.68-2.25,59.69,4.44,4,15.56,10.62,15.56,10.62,52.16,27.71,156.91,24.22,235,1.39,1.7-.51,3.4-1,5.08-1.49v0C571.84,198.51,628.2,147.62,541.85,86.68Z" transform="translate(-8.96 -12.69)" style="fill:#124169"/><path d="M277.41,20.6C355.24,42.52,394.55,63.53,420,88.09c23.83,23,36.54,48.42,16,80.4-25.19,39.21-136.88,53.12-177.85,15.89a2.34,2.34,0,0,0-3.33,3.29c24.32,27.45,61.39,29.82,94.27,29.75C526.56,217,577.94-2.66,296.1,13.54A134.71,134.71,0,0,0,277.65,16,2.31,2.31,0,0,0,277.41,20.6Z" transform="translate(-8.96 -12.69)" style="fill:#124169"/><path d="M48.44,100.92c75.43-24,130.34-31.24,184.66-30.38,50.85.79,101.7,8,146.16,34,49.57,29,23.77,85.54-62.2,85.33a2.35,2.35,0,1,0-.12,4.69c56.75,2.73,79.48-12.44,96.28-27.7,45.41-41.24-21.93-95.57-105.88-121.34C221.23,19.1,109.19,18.85,51,87.77a25.41,25.41,0,0,0-3.88,6.06c-.73,1.61-1.11,3-1.52,4A2.25,2.25,0,0,0,48.44,100.92Z" transform="translate(-8.96 -12.69)" style="fill:#124169"/><path d="M110,145.58c26.43-22.18,63.68-41.47,129.68-48.49,84.91-9,153.18,36.39,116.21,69.25a2.34,2.34,0,0,0,2.94,3.65c34.55-25.31,19.15-44.68,2.25-59.7-43.69-38.85-163.63-37.42-250.59-12C30.6,121.64-27.23,167.94,35.58,224.22h0a181.36,181.36,0,0,0,16.57,13.08,58.84,58.84,0,0,0,7.63,4.9,37.1,37.1,0,0,0,5.8,2.6c2.07.54,3.54-.65,3.45-2.58a160.85,160.85,0,0,1,0-18H69l.13-.08C71.24,189.28,85.77,165.91,110,145.58Z" transform="translate(-8.96 -12.69)" style="fill:#124169"/><path d="M545.55,223.08c-1,.32-2.07.66-3.1,1h-.24c-73.71,23.15-127.8,30.16-181.32,29.34-47.56-.75-95.15-7.11-137.5-29.25h0q-4.35-2.26-8.6-4.76c-49.59-29-23.78-85.54,62.19-85.34a2.34,2.34,0,1,0,.11-4.68c-56.75-2.74-79.47,12.43-96.28,27.69-22.89,20.81-17.13,44.92,5,67.09h.07c21.75,21.72,59.26,41.49,100.84,54.25,86.11,26.44,198.15,26.68,256.39-42.25a25.59,25.59,0,0,0,3.89-6.05c.72-1.61,1.1-2.95,1.51-4a2.59,2.59,0,0,0,0-1.95A2.26,2.26,0,0,0,545.55,223.08Z" transform="translate(-8.96 -12.69)" style="fill:#124169"/><path d="M316.59,303.4C238.77,281.47,199.44,260.47,174,235.91a136.65,136.65,0,0,1-10.88-11.69v0c-16.27-19.94-22.24-42-5.13-68.69,25.2-39.21,136.89-53.12,177.85-15.9a2.34,2.34,0,0,0,3.34-3.29c-24.32-27.44-61.4-29.82-94.28-29.75-94,.23-152.66,62-145.06,117.65,6.74,49.35,65.6,93.85,198.08,86.24A136.35,136.35,0,0,0,316.35,308,2.31,2.31,0,0,0,316.59,303.4Z" transform="translate(-8.96 -12.69)" style="fill:#124169"/></svg>