<svg xmlns="http://www.w3.org/2000/svg" viewBox="0 0 576 66.29"><title>crestron</title><path d="M127.29,28.28a13.1,13.1,0,0,0-1.72-1c-.51-.24-.95-.42-1.29-.58a.5.5,0,0,0-.74.5c.51,10-2.83,16.2-9.09,21.45C109.23,53,102.11,56.89,90.3,58.8h-.06c-1.45.23-3,.44-4.58.6a44.23,44.23,0,0,1-13.49-.6C60.85,56.37,53.77,49.45,59.86,44a.52.52,0,1,0-.65-.81c-7.67,5.61-4.25,9.91-.5,13.25a32.85,32.85,0,0,0,3.45,2.35C73.74,65,97,64.21,114.34,59.14l1.12-.33h0C134,53.1,146.45,41.81,127.29,28.28Z" transform="translate(-9 -11.86)" style="fill:#124169"/><path d="M68.59,13.61c17.27,4.87,26,9.53,31.65,15,5.29,5.11,8.12,10.75,3.56,17.85C98.2,55.14,73.41,58.23,64.32,50a.52.52,0,0,0-.74.73c5.4,6.09,13.63,6.62,20.92,6.6,39.39-.09,50.8-48.85-11.76-45.25a29.08,29.08,0,0,0-4.1.55A.51.51,0,0,0,68.59,13.61Z" transform="translate(-9 -11.86)" style="fill:#124169"/><path d="M17.76,31.44c16.75-5.32,28.94-6.93,41-6.74,11.29.17,22.58,1.77,32.45,7.55,11,6.44,5.27,19-13.81,18.94a.52.52,0,1,0,0,1c12.6.6,17.65-2.76,21.38-6.15,10.08-9.16-4.87-21.22-23.51-26.93-19.11-5.87-44-5.92-56.91,9.37a5.48,5.48,0,0,0-.86,1.35c-.16.36-.25.65-.34.88A.5.5,0,0,0,17.76,31.44Z" transform="translate(-9 -11.86)" style="fill:#124169"/><path d="M31.43,41.36c5.87-4.93,14.14-9.21,28.79-10.77,18.84-2,34,8.08,25.79,15.37a.52.52,0,0,0,.66.81c7.66-5.62,4.24-9.91.49-13.25-9.69-8.62-36.32-8.3-55.62-2.66C13.8,36,1,46.32,14.91,58.81h0a38.78,38.78,0,0,0,3.68,2.91,12.83,12.83,0,0,0,1.69,1.09,8.58,8.58,0,0,0,1.29.57.55.55,0,0,0,.76-.57,35.35,35.35,0,0,1,0-4h0l0,0C22.83,51.06,26.05,45.87,31.43,41.36Z" transform="translate(-9 -11.86)" style="fill:#124169"/><path d="M128.11,58.56c-.23.07-.46.14-.69.23h0C111,63.93,99,65.49,87.12,65.3,76.56,65.14,66,63.73,56.6,58.81h0c-.64-.33-1.28-.69-1.91-1.06-11-6.44-5.28-19,13.8-18.94a.52.52,0,1,0,0-1c-12.6-.6-17.64,2.76-21.37,6.15-5.08,4.62-3.8,10,1.1,14.89h0c4.83,4.82,13.15,9.21,22.38,12,19.12,5.87,44,5.92,56.91-9.37a5.88,5.88,0,0,0,.87-1.35c.16-.36.24-.65.33-.89a.54.54,0,0,0,0-.43A.5.5,0,0,0,128.11,58.56Z" transform="translate(-9 -11.86)" style="fill:#124169"/><path d="M77.29,76.39c-17.28-4.87-26-9.53-31.66-15a30.43,30.43,0,0,1-2.41-2.6h0c-3.62-4.43-4.94-9.34-1.14-15.25,5.59-8.7,30.38-11.79,39.48-3.53a.52.52,0,1,0,.73-.73c-5.39-6.09-13.62-6.62-20.92-6.6-20.87,0-33.89,13.76-32.2,26.11,1.5,11,14.56,20.83,44,19.14a28.88,28.88,0,0,0,4.09-.55A.51.51,0,0,0,77.29,76.39Z" transform="translate(-9 -11.86)" style="fill:#124169"/><path d="M183.69,50.25c-2,4.72-5.79,7.07-11,7.07-7.26,0-10.31-4.11-8.69-11.73s6.43-11.78,13.69-11.78c5.68,0,8.39,2.9,7.79,8.28h19.34c2-12.46-6.5-19.47-24.76-19.47-19.46,0-31,7.86-34.26,23s5,23,24.5,23c17.41,0,28.61-6.34,32.91-18.31Z" transform="translate(-9 -11.86)" style="fill:#124169"/><path d="M495.82,22.62c-19.46,0-31,7.86-34.26,23s5,23,24.5,23,31.05-7.85,34.26-23S515.29,22.62,495.82,22.62Zm5.68,23c-1.62,7.62-6.42,11.73-13.67,11.73s-10.32-4.11-8.7-11.73,6.44-11.78,13.69-11.78S503.12,38,501.5,45.59Z" transform="translate(-9 -11.86)" style="fill:#124169"/><polygon points="554.46 11.91 549.12 37.06 537.6 11.91 517.59 11.91 508.31 55.56 524.27 55.56 529.7 29.99 542.58 55.56 561.57 55.56 570.84 11.91 554.46 11.91" style="fill:#124169"/><path d="M464.32,35.5c.9-4.23-.14-7.56-3-9.49-2.42-1.69-7.08-2.24-14-2.24H414.11l-9.28,43.64H422l2.82-13.29h10.1c4.17,0,5.51,1.08,5.18,4.35-.36,3.68-1.63,6.83-.75,8.94h18.79l.14-.66c-1.83-1-1.07-4.6,0-10.88.81-5,.78-7.38-3.46-9.31A14.9,14.9,0,0,0,464.32,35.5ZM445,38.64c-.67,3.14-3.21,4-7.86,4h-9.86l1.66-7.8h9.43C443.31,34.83,445.68,35.32,445,38.64Z" transform="translate(-9 -11.86)" style="fill:#124169"/><path d="M412.57,23.77H364L362.7,30c-2.63-5.12-10.46-7.38-23.62-7.38-17.05,0-26,4.05-28.13,14-1.55,7.31,2.83,11.73,13,13l12.3,1.57c4,.49,5.71,1.58,5.31,3.45-.45,2.12-3,3.14-7.5,3.14s-7-1.39-6.83-3.68H306.76a13.74,13.74,0,0,0-.24,2.05H276.19l1.22-5.74h23.75l2.29-10.76H279.69l1.11-5.2h29.32l2.27-10.7H266.15l-9.28,43.64h47.69l2-9.47c.78,6.88,8.33,10.8,22.46,10.8,20.06,0,30.65-4.59,33-15.53,1.53-7.19-2.36-11.36-11.68-12.76l-14.95-2.17c-4.22-.6-6.22-1.15-5.81-3.08.36-1.7,2.73-2.91,6.72-2.91,5.26,0,7.79,1.46,7.63,4.18h19.65a13.55,13.55,0,0,0,.13-1.64h13.75l-6.93,32.58h16.93l6.92-32.58h15.84Z" transform="translate(-9 -11.86)" style="fill:#124169"/><path d="M261.17,35.5c.9-4.23-.15-7.56-3-9.49-2.43-1.69-7.08-2.24-14-2.24H211l-9.28,43.64h17.17l2.83-13.29h10.09c4.17,0,5.51,1.08,5.18,4.35-.36,3.68-1.63,6.83-.75,8.94H255l.14-.66c-1.84-1-1.08-4.6,0-10.88.82-5,.78-7.38-3.46-9.31A14.91,14.91,0,0,0,261.17,35.5Zm-19.35,3.14c-.67,3.14-3.21,4-7.86,4h-9.85l1.65-7.8h9.43C240.15,34.83,242.53,35.32,241.82,38.64Z" transform="translate(-9 -11.86)" style="fill:#124169"/><path d="M582.16,61c0-1.17-.69-1.69-2.1-1.69H577.8v5.95h.9V62.66h1l1.57,2.58h1l-1.69-2.62A1.55,1.55,0,0,0,582.16,61Zm-3.46.92V60.06h1.23c.62,0,1.29.13,1.29.87,0,.91-.68,1-1.45,1Z" transform="translate(-9 -11.86)" style="fill:#124169"/><path d="M579.79,57.11A5.16,5.16,0,1,0,585,62.25,5.15,5.15,0,0,0,579.79,57.11Zm0,9.46A4.3,4.3,0,1,1,584,62.25,4.17,4.17,0,0,1,579.79,66.57Z" transform="translate(-9 -11.86)" style="fill:#124169"/></svg>