<svg xmlns="http://www.w3.org/2000/svg" width="595.275" height="841.89" viewBox="26.0830020904541 320.2370300292969 544.2509765625 203.52395629882812"><path d="M52.633 515.704c0-9.543-21.111-5.933-21.111-11.389 0-2.106 3.254-3.782 8.16-3.782 3.765 0 7.633 1.353 9.977 2.859l2.578-3.181c-2.837-1.768-7.452-3.577-12.395-3.577-7.976 0-13.043 3.577-13.043 8.264 0 9.301 21.087 5.232 21.087 11.237 0 1.998-2.412 3.729-7.856 3.729-4.046 0-8.234-1.148-12.226-3.164l-1.721 3.746c3.879 1.863 8.62 3.314 13.703 3.314 7.491.001 12.847-3.163 12.847-8.056z"/><path fill-rule="evenodd" clip-rule="evenodd" d="M86.662 505.443v-.17c0-4.552-3.388-7.716-10.951-7.716H62.036v25.146h4.688v-9.391h8.988c7.562.001 10.95-3.2 10.95-7.869zm-4.704.171c0 2.089-1.438 3.935-5.337 3.935h-9.896v-8.057H76.4c3.882 0 5.559 1.694 5.559 3.781v.341h-.001z"/><path d="M118.862 522.703v-3.932h-18.149v-6.983h13.945v-3.783h-13.945v-6.513h18.149v-3.934H95.99v25.145h22.872zM155.317 501.68c-2.615-2.806-7.471-5.045-12.792-5.045-9.221 0-15.521 6.497-15.521 13.272v.787c0 6.87 5.77 13.066 15.296 13.066 5.545 0 10.236-2.374 13.016-5.045l-2.853-2.993c-2.191 2.053-5.664 3.995-9.869 3.995-7.024 0-10.846-4.39-10.846-9.211v-.43c0-4.839 3.796-9.486 10.503-9.486 4.499 0 7.833 2.012 10.094 4.083l2.972-2.993zM169.149 522.703v-25.145h-4.722v25.145h4.722z"/><path fill-rule="evenodd" clip-rule="evenodd" d="M208.411 522.703l-13.806-25.146h-3.934l-13.6 25.146h4.979l3.2-6.209h14.795l3.303 6.209h5.063zm-10.23-9.616h-11.153l5.506-10.637 5.647 10.637z"/><path d="M240.732 522.703v-3.932h-19.689v-21.213h-4.742v25.145h24.431zM272.317 522.703v-3.932h-18.165v-6.983h13.958v-3.783h-13.958v-6.513h18.165v-3.934h-22.871v25.145h22.871zM306.412 522.703v-3.932h-19.737v-21.213h-4.705v25.145h24.442zM337.95 522.703v-3.932h-18.166v-6.983h14.007v-3.783h-14.007v-6.513h18.166v-3.934h-22.87v25.145h22.87zM374.528 522.703s-11.443-10.313-14.95-13.38l14.593-11.766h-6.382l-15.548 12.913v-12.913h-4.687v25.146h4.687v-7.545l4.257-3.351c0-.02 11.875 10.896 11.875 10.896h6.155zM407.927 501.492v-3.934h-26.67v3.934h11.011v21.211h4.725v-21.211h10.934z"/><path fill-rule="evenodd" clip-rule="evenodd" d="M443.362 522.703v-.053c-1.166-1.281-1.506-2.546-1.524-4.275l-.018-2.069c-.019-2.976-1.111-5.191-6.004-5.574 4.893-.842 6.31-3.46 6.31-6.246 0-3.916-3.451-6.928-10.979-6.928h-13.702v25.146h4.704V512.56h8.962c4.706 0 5.683 1.094 5.853 3.559l.17 2.598c.17 2.259.734 3.987 2.02 3.987h4.208v-.001zm-6.022-17.295c0 2.033-1.642 3.611-5.082 3.611h-10.109v-7.527h9.715c3.989 0 5.477 1.827 5.477 3.575v.341h-.001zM480.471 510.642v-.888c0-6.775-5.799-13.119-14.713-13.119-8.929 0-14.727 6.344-14.727 13.119v.888c0 6.623 5.798 13.119 14.727 13.119 8.914 0 14.713-6.496 14.713-13.119zm-4.724-.171c0 4.875-3.558 9.247-9.989 9.247-6.464 0-9.94-4.372-9.94-9.247v-.581c0-4.877 3.477-9.299 9.94-9.299 6.432 0 9.989 4.422 9.989 9.299v.581z"/><path d="M516.683 522.703v-25.145h-4.712v18.643l-1.594-1.796-15.873-16.847h-4.519v25.145h4.707v-18.596l1.541 1.752 16.403 16.844h4.047zM532.405 522.703v-25.145H527.7v25.145h4.705zM570.334 522.703s-11.479-10.313-14.902-13.38l14.573-11.766h-6.381l-15.549 12.913v-12.913h-4.683v25.146h4.683v-7.545l4.193-3.351c0-.02 11.953 10.896 11.953 10.896h6.113z"/><path fill-rule="evenodd" clip-rule="evenodd" fill="#9C9C9E" d="M409.784 425.732v-2.095h-42.562c0 11.494-6.964 20.063-37.693 20.063-33.406 0-40.419-11.248-40.419-29.218v-7.597h120.674v-33.748c0-28.878-8.229-52.9-81.423-52.9-73.291 0-81.521 24.022-81.521 52.9v44.364c0 28.635 9.447 52.888 82.689 52.888 63.893.001 80.255-16.118 80.255-44.657zm-42.561-43.191H289.11v-5.458c0-18.846 4.578-30.719 39.251-30.719 34.579 0 38.861 11.873 38.861 30.719v5.458h.001z"/><path fill="#359D37" d="M300.305 382.878l-52.883-3.36c-10.62-.925-15.782-4.87-15.782-13.977 0-11.542 4.87-17.959 38.617-17.959 29.462 0 34.333 6.079 34.333 17.328v.924h43.487v-3.944c0-26.443-13.343-41.345-77.82-41.345-58.681 0-82.105 13.977-82.105 45.582 0 24.642 11.879 39.835 49.868 42.27l52.593 3.36c10.958.584 16.071 4.529 16.071 13.977 0 11.59-5.113 17.969-38.861 17.969-30.425 0-36.475-6.136-36.475-17.385v-.925h-43.196v3.944c0 26.2 13.685 41.395 79.671 41.395 58.925 0 82.105-14.026 82.105-45.923 0-27.03-10.08-39.496-49.623-41.931z"/><path fill-rule="evenodd" clip-rule="evenodd" fill="#9C9C9E" d="M246.909 420.673c.738 27.188 12.093 49.717 82.62 49.717 63.893 0 80.255-16.119 80.255-44.657v-2.095h-42.562c0 11.494-6.964 20.063-37.693 20.063-29.109 0-38.182-8.589-39.78-22.663l-42.84-.365z"/></svg>