<svg xmlns="http://www.w3.org/2000/svg" viewBox="0 0 259.07 96.86"><title>se-onwhite</title><path d="M181.32,466.58c0-4.53-10.06-2.79-10.06-5.4,0-1,1.55-1.81,3.89-1.81a9.38,9.38,0,0,1,4.75,1.38l1.22-1.51a11.29,11.29,0,0,0-5.9-1.71c-3.79,0-6.2,1.71-6.2,3.94,0,4.39,10,2.48,10,5.34,0,.92-1.15,1.77-3.74,1.77a13.24,13.24,0,0,1-5.81-1.5l-.83,1.79a15.39,15.39,0,0,0,6.53,1.54c3.57,0,6.12-1.49,6.12-3.83Z" transform="translate(-168.67 -373.55)" style="fill:#000"/><path d="M197.52,461.72v-.07c0-2.19-1.62-3.69-5.22-3.69h-6.51v12H188v-4.48h4.28c3.6,0,5.22-1.52,5.22-3.74Zm-2.25.07c0,1-.68,1.88-2.54,1.88H188v-3.84h4.61c1.85,0,2.64.81,2.64,1.82v.14Z" transform="translate(-168.67 -373.55)" style="fill:#000;fill-rule:evenodd"/><polygon points="44.16 96.39 44.16 94.52 35.53 94.52 35.53 91.17 42.17 91.17 42.17 89.36 35.53 89.36 35.53 86.28 44.16 86.28 44.16 84.41 33.28 84.41 33.28 96.39 44.16 96.39 44.16 96.39" style="fill:#000"/><path d="M230.19,459.92a8.61,8.61,0,0,0-6.09-2.39c-4.39,0-7.39,3.06-7.39,6.3v.39c0,3.24,2.75,6.19,7.29,6.19a9,9,0,0,0,6.19-2.39l-1.35-1.42a7,7,0,0,1-4.7,1.92c-3.35,0-5.16-2.12-5.16-4.39v-.23c0-2.28,1.8-4.48,5-4.48a7,7,0,0,1,4.8,1.93l1.41-1.43Z" transform="translate(-168.67 -373.55)" style="fill:#000"/><polygon points="68.1 96.39 68.1 84.41 65.85 84.41 65.85 96.39 68.1 96.39 68.1 96.39" style="fill:#000"/><path d="M255.47,469.94l-6.58-12H247l-6.48,12h2.37l1.53-3h7l1.58,3Zm-4.87-4.6h-5.31l2.61-5,2.7,5Z" transform="translate(-168.67 -373.55)" style="fill:#000;fill-rule:evenodd"/><polygon points="102.17 96.39 102.17 94.52 92.8 94.52 92.8 84.41 90.55 84.41 90.55 96.39 102.17 96.39 102.17 96.39" style="fill:#000"/><polygon points="117.2 96.39 117.2 94.52 108.57 94.52 108.57 91.17 115.2 91.17 115.2 89.36 108.57 89.36 108.57 86.28 117.2 86.28 117.2 84.41 106.32 84.41 106.32 96.39 117.2 96.39 117.2 96.39" style="fill:#000"/><polygon points="133.42 96.39 133.42 94.52 124.04 94.52 124.04 84.41 121.8 84.41 121.8 96.39 133.42 96.39 133.42 96.39" style="fill:#000"/><polygon points="148.45 96.39 148.45 94.52 139.81 94.52 139.81 91.17 146.45 91.17 146.45 89.36 139.81 89.36 139.81 86.28 148.45 86.28 148.45 84.41 137.56 84.41 137.56 96.39 148.45 96.39 148.45 96.39" style="fill:#000"/><path d="M334.54,469.94l-7.1-6.4,6.94-5.58h-3L324,464.1V458h-2.24v12H324v-3.61l2-1.58s5.69,5.19,5.69,5.19Z" transform="translate(-168.67 -373.55)" style="fill:#000"/><polygon points="181.78 86.28 181.78 84.41 169.06 84.41 169.06 86.28 174.29 86.28 174.29 96.39 176.54 96.39 176.54 86.28 181.78 86.28 181.78 86.28" style="fill:#000"/><path d="M367.32,469.94v-.05a2.64,2.64,0,0,1-.74-2l0-1c0-1.41-.52-2.47-2.86-2.65,2.34-.43,3-1.67,3-3,0-1.86-1.62-3.3-5.22-3.3H355v12h2.25v-4.83h4.24c2.25,0,2.74.5,2.81,1.69l.07,1.22c.07,1.08.34,1.92.95,1.92Zm-2.88-8.25c0,.95-.77,1.74-2.43,1.74h-4.8v-3.6h4.6c1.93,0,2.63.85,2.63,1.71v.15Z" transform="translate(-168.67 -373.55)" style="fill:#000;fill-rule:evenodd"/><path d="M385,464.17v-.4c0-3.23-2.75-6.24-7-6.24s-7,3-7,6.24v.4c0,3.18,2.75,6.24,7,6.24s7-3.06,7-6.24Zm-2.26-.07a4.76,4.76,0,0,1-9.49,0v-.29a4.76,4.76,0,0,1,9.49,0v.29Z" transform="translate(-168.67 -373.55)" style="fill:#000;fill-rule:evenodd"/><polygon points="233.54 96.39 233.54 84.41 231.29 84.41 231.29 93.28 230.52 92.42 222.96 84.41 220.81 84.41 220.81 96.39 223.05 96.39 223.05 87.52 223.81 88.37 231.6 96.39 233.54 96.39 233.54 96.39" style="fill:#000"/><polygon points="241.02 96.39 241.02 84.41 238.77 84.41 238.77 96.39 241.02 96.39 241.02 96.39" style="fill:#000"/><path d="M427.74,469.94l-7.11-6.4,6.95-5.58h-3l-7.4,6.14V458h-2.23v12h2.23v-3.61l2-1.58s5.69,5.19,5.69,5.19Z" transform="translate(-168.67 -373.55)" style="fill:#000"/><path d="M351.33,423.77v-1H331.07c0,5.5-3.33,9.55-17.95,9.55-15.92,0-19.24-5.35-19.24-13.89V414.8h57.45V398.73c0-13.75-3.91-25.18-38.79-25.18S273.76,385,273.76,398.73v21.13c0,13.6,4.49,25.18,39.36,25.18,30.39,0,38.21-7.67,38.21-21.27Zm-20.26-20.55H293.88v-2.61c0-9,2.17-14.61,18.66-14.61s18.53,5.64,18.53,14.61v2.61Z" transform="translate(-168.67 -373.55)" style="fill:#9c9c9e;fill-rule:evenodd"/><path d="M299.22,403.36,274,401.77c-5.06-.43-7.52-2.31-7.52-6.66,0-5.49,2.31-8.53,18.38-8.53,14,0,16.35,2.89,16.35,8.25v.43h20.69v-1.88c0-12.59-6.36-19.68-37-19.68-27.93,0-39.08,6.65-39.08,21.7,0,11.73,5.65,19,23.74,20.12l25,1.59c5.21.29,7.67,2.17,7.67,6.66,0,5.5-2.46,8.53-18.52,8.53-14.47,0-17.37-2.89-17.37-8.24v-.44H245.82v1.88c0,12.45,6.52,19.69,37.92,19.69,28.07,0,39.07-6.66,39.07-21.86,0-12.88-4.77-18.81-23.59-20Z" transform="translate(-168.67 -373.55)" style="fill:#359d37"/><path d="M273.78,421.36c.35,12.94,5.76,23.68,39.34,23.68,30.39,0,38.21-7.67,38.21-21.27v-1H331.07c0,5.5-3.33,9.55-17.95,9.55-13.88,0-18.19-4.07-18.95-10.77l-20.39-.17Z" transform="translate(-168.67 -373.55)" style="fill:#9c9c9e;fill-rule:evenodd"/></svg>