<svg xmlns="http://www.w3.org/2000/svg" viewBox="0 0 1000 236.32"><title>dante</title><path d="M301.73.56H251.59v231h49.25c80.19,0,130-44.72,130-116.7C430.85,45.44,380.17.56,301.73.56ZM287.39,34h5.76c46.48,0,101.9,14.24,101.9,82.08s-55.42,82.09-101.9,82.09h-5.76Z" style="fill:#1d1d1b"/><path d="M550.92,85.16v16.12C539.08,88.13,523.6,81,506.41,81,461.35,81,437,120.42,437,157.49c0,39.17,24.13,78.83,70.25,78.83,16.48,0,31.92-7,43.63-19.64v14.91h34.61V85.16Zm1.48,73.22c0,23-12.67,46.28-41,46.28-26.11,0-39.77-23.29-39.77-46.28,0-22.71,13.66-45.7,39.77-45.7C539.73,112.68,552.4,135.63,552.4,158.38Z" style="fill:#1d1d1b"/><path d="M685.05,81c-15,0-28.87,5.77-38.3,15.56V85.16H612.14V231.59h34.61V164c0-30.05,2.18-51.32,30.32-51.32,22.65,0,26.47,11,26.47,35.64v83.27h34.61V145.06C738.15,102,720.78,81,685.05,81Z" style="fill:#1d1d1b"/><polygon points="805.29 85.16 805.29 32.21 770.67 32.21 770.67 85.16 756.18 85.16 756.18 118 770.67 118 770.67 231.59 805.29 231.59 805.29 118 831.32 118 831.32 85.16 805.29 85.16" style="fill:#1d1d1b"/><path d="M939.5,176.36l-2,3.31c-9.36,15.43-19,25-38,25-22.55,0-35.65-18.82-37.5-37.85H967.38v-8.14C967.38,110.77,941,81,898.6,81c-44.07,0-71.44,30.09-71.44,78.54,0,45.2,29.62,76.76,72,76.76,28.81,0,54.12-14.94,67.71-40l1.87-3.45ZM864.23,138.7c4.49-16.1,17.8-26.62,34.37-26.62,16.85,0,29,9.86,33.27,26.62Z" style="fill:#1d1d1b"/><path d="M27.94,231.82H0V214.63H27.94v17.19M54.7,214.63v17.19H201.93V214.63Z" style="fill:#dd052b"/><path d="M27.74,193.73V183.62c0-86.19,73.62-156.3,164.1-156.3h10.09V0H191.84C86.28,0,.43,82.37.43,183.62v10.12Z" style="fill:#1d1d1b"/><path d="M191.84,54.64c-75.42,0-136.78,57.85-136.78,129v10.09H164.59v-29H84.18c7.93-42.51,44.36-76,90.32-82.83v82.83h0v29h27.45V54.64Z" style="fill:#1d1d1b"/><path d="M978.16,97a21.4,21.4,0,0,1-8.57-1.71,22.27,22.27,0,0,1-6.93-4.69,21.57,21.57,0,0,1-4.66-7,22.83,22.83,0,0,1,0-17.24,21.53,21.53,0,0,1,4.66-7,22.27,22.27,0,0,1,6.93-4.69,22.11,22.11,0,0,1,17.1,0,22.18,22.18,0,0,1,7,4.69,21.53,21.53,0,0,1,4.66,7,22.83,22.83,0,0,1,0,17.24,21.57,21.57,0,0,1-4.66,7,22.18,22.18,0,0,1-7,4.69A21.38,21.38,0,0,1,978.16,97Zm0-39.25a17.16,17.16,0,0,0-12.09,4.91,16.54,16.54,0,0,0-3.66,5.46,18.28,18.28,0,0,0,0,13.69,17,17,0,0,0,31.49,0,18.28,18.28,0,0,0,0-13.69,16.54,16.54,0,0,0-3.66-5.46,17.11,17.11,0,0,0-12.08-4.91ZM988.3,86.29h-5.21l-5.32-9.09h-4v9.09H969V63.45h11.08a23.74,23.74,0,0,1,3.64.25,7.16,7.16,0,0,1,2.8,1,4.91,4.91,0,0,1,1.8,2.11,8.68,8.68,0,0,1,.64,3.63c0,4.21-2.08,6.47-6.21,6.76ZM980.21,73.1a6.43,6.43,0,0,0,3-.58,2.55,2.55,0,0,0,1.08-2.47,2,2,0,0,0-.5-1.44,3.08,3.08,0,0,0-1.3-.75,6.38,6.38,0,0,0-1.72-.28l-1.75,0h-5.26V73.1Z" style="fill:#1d1d1b"/></svg>